<svg xmlns="http://www.w3.org/2000/svg" width="146" height="40" viewBox="0 0 146 40"><path d="M39.879 13.116v8.767c0 3.128.47 4.583 1.956 4.583 1.268 0 2.283-1.127 2.283-2.764v-5.784h-2.391v-4.802h9.384v13.35h1.776v4.839h-6.849l-.978-2.292c-.797.91-2.065 2.8-5.145 2.8-5.471 0-7.283-2.837-7.283-8.875v-5.02H31.11v-4.802h8.769zm23.245 0v13.416h1.688v4.762h-9.851v-4.762h1.477v-8.69h-1.477v-4.726h8.163zm-3.273-9.35c2.461 0 3.924 2.007 3.924 3.655 0 1.97-1.391 3.617-3.924 3.617-2.248 0-3.853-1.898-3.853-3.617 0-1.648 1.356-3.654 3.853-3.654zM77.6 26.833c-1.375 0-2.605-1.888-2.605-4.358-.144-2.87 1.158-4.65 2.568-4.65 1.591 0 2.603 2.288 2.603 4.468 0 2.76-1.049 4.54-2.567 4.54m1.808-14.13c-2.17 0-3.688 1.054-4.375 1.562l-.615-1.271h-8.28v4.831h1.519v15.983h-1.519v4.76H76.95v-4.76h-1.954v-3.669c.253.218 1.7 1.417 4.701 1.417 4.664 0 8.244-3.56 8.244-9.335 0-5.16-2.893-9.518-8.533-9.518m20.689 14.13c-1.362 0-2.58-1.888-2.58-4.358-.144-2.87 1.146-4.65 2.544-4.65 1.577 0 2.58 2.288 2.58 4.468 0 2.76-1.04 4.54-2.544 4.54m1.791-14.13c-2.15 0-3.654 1.054-4.335 1.562l-.61-1.271h-8.206v4.831h1.505v15.983h-1.505v4.76h10.715v-4.76h-1.936v-3.669c.251.218 1.685 1.417 4.659 1.417 4.623 0 8.17-3.56 8.17-9.335 0-5.16-2.866-9.518-8.457-9.518m19.268 4.771c2.288 0 2.61 1.517 2.646 2.89h-5.4c.072-.903.572-2.89 2.754-2.89m.459-4.877c4.255 0 7.51 2.204 8.546 5.238.43 1.265.822 4.046.07 6.106H118.97c.214.974.679 2.961 3.683 2.961 1.215 0 3.075-.108 5.006-1.734l3.004 3.504c-2.646 2.312-5.507 3.143-9.226 3.143-4.434 0-9.44-2.854-9.44-9.79 0-5.923 4.22-9.428 9.619-9.428zM146 12.213v6.451c-3.278 0-5.137.824-5.137 3.978v3.692h1.822v4.695h-10.31v-4.695h1.603v-8.566h-1.567v-4.66h6.85l1.092 2.295c.946-1.72 1.895-3.19 5.647-3.19zM13.822 25.574c-2.693 0-4.875-3.781-4.875-8.446 0-4.664 2.182-8.445 4.875-8.445s4.876 3.78 4.876 8.445c0 4.665-2.183 8.446-4.876 8.446zm13.038 2.908c0 .696-.082 1.843-.815 1.843-1.02 0-1.468-1.393-1.794-2.663 2.242-2.456 3.383-5.937 3.383-10.236 0-8.721-4.32-14.536-13.94-14.536C5.503 2.89 0 8.786 0 17.14c0 9.663 5.706 14.494 13.94 14.494 1.1 0 2.2-.081 3.178-.245.897 2.415 2.976 4.545 6.318 4.545 4.076 0 6.114-2.907 6.114-6.551v-2.089h-2.69v1.188z" fill="#00BEFF" fill-rule="evenodd"/></svg>